<svg xmlns="http://www.w3.org/2000/svg" viewBox="0 0 825 206.45"><defs><style>.cls-1{fill:#d5d8dd;}.cls-2{fill:#f2f3f5;}.cls-2,.cls-3{opacity:0.8;}.cls-3{fill:#fff;}</style></defs><g id="Layer_2" data-name="Layer 2"><g id="Layer_1-2" data-name="Layer 1"><path class="cls-1" d="M825,206l-188-74.42a59,59,0,0,0-18.77-4.06l-201.9-10.06A446.38,446.38,0,0,0,279.85,131.8L0,206V0L204.23,62.47a171.87,171.87,0,0,0,101.46-.28L451.21,16.78a190.28,190.28,0,0,1,108-1.56L678.61,48.71a111.27,111.27,0,0,0,89.1-12.83L825,0Z"/><path class="cls-2" d="M0,206.45,150,140c6-2.37,50.29-11.71,56.72-12l201.9-10.06C454.6,115.62,502.5,91.2,547,103L825,206.45V.45L623,81c-33.08,10.12-70.67-8.06-103.69-18.36L373.79,17.24a190.19,190.19,0,0,0-108-1.57L142,72c-30.18,8.47-58.15-19-84.71-35.67L0,.45Z"/><path class="cls-3" d="M0,38.45,144,74a44.47,44.47,0,0,0,19.58.39A233.56,233.56,0,0,1,214,69l194.62,7.51c46,1,93.88,11.48,138.38,6.41L825,38.45V127L623,92.38c-33.08-4.35-70.67,3.46-103.69,7.89L373.79,119.79a435.38,435.38,0,0,1-108,.67L142,96.25c-30.18-3.64-58.15,8.18-84.71,15.33L0,127Z"/></g></g></svg>