<svg id="Layer_1" data-name="Layer 1" xmlns="http://www.w3.org/2000/svg" viewBox="0 0 225 225"><rect x="94.75" width="35.51" height="115.62" rx="17.75"/><path d="M331.59,177.06l-.08.12a19,19,0,0,0,3.09,23.93,75.3,75.3,0,0,1,23.47,55c-.13,40.6-32.82,74.16-73.22,75.11-42.26,1-76.84-33.12-76.84-75.36a75.29,75.29,0,0,1,23.42-54.69,18.8,18.8,0,0,0,2.93-23.6l-.08-.13a18.6,18.6,0,0,0-28.57-3.67,113,113,0,0,0-35.16,83.48c.73,61,50.21,110.78,110.89,111.63,62.86.88,114.1-50.06,114.1-113A112.94,112.94,0,0,0,360,173.38,18.58,18.58,0,0,0,331.59,177.06Z" transform="translate(-170.54 -143.89)"/></svg>