<svg xmlns="http://www.w3.org/2000/svg" viewBox="0 0 922.71 175"><defs><style>.cls-1{fill:#3f3a48;}</style></defs><g id="Layer_2" data-name="Layer 2"><g id="Layer_1-2" data-name="Layer 1"><path class="cls-1" d="M225.38,147a7.17,7.17,0,0,1-7.28-7.28V45a7,7,0,0,1,2.1-5.25,7.13,7.13,0,0,1,5.18-2h33.46a36,36,0,0,1,16.73,3.71,28.51,28.51,0,0,1,11.34,10.29A27.84,27.84,0,0,1,291,66.8a21.78,21.78,0,0,1-3.71,12.39,26,26,0,0,1-10.15,8.75A27.32,27.32,0,0,1,292,96.76q5.6,6.57,5.6,17.22a31.3,31.3,0,0,1-17.22,28.77A39.51,39.51,0,0,1,261.78,147Zm7.28-64.4h26.18q8,0,13.09-3.92T277,66.8q0-8-5.11-11.83t-13.09-3.85H232.66Zm0,51h29.12a27.09,27.09,0,0,0,11.34-2.24,17.81,17.81,0,0,0,7.7-6.58,19.57,19.57,0,0,0,2.8-10.78,16.71,16.71,0,0,0-2.8-9.94,17.35,17.35,0,0,0-7.7-6,29.35,29.35,0,0,0-11.34-2H232.66Z"/><path class="cls-1" d="M323.24,58a9.21,9.21,0,0,1-6.52-15.75,9.21,9.21,0,1,1,13,13A8.85,8.85,0,0,1,323.24,58Zm0,89a6.94,6.94,0,0,1-7.15-7.14V77.58a6.87,6.87,0,0,1,2-5.18,7.07,7.07,0,0,1,5.12-2,6.74,6.74,0,0,1,7.13,7.14v62.3a7.06,7.06,0,0,1-2,5.11A6.86,6.86,0,0,1,323.24,147Z"/><path class="cls-1" d="M388.47,147.58a39.62,39.62,0,0,1-20-5,36.19,36.19,0,0,1-13.65-13.72,40,40,0,0,1-5-20.09,40.26,40.26,0,0,1,5-20.23,36,36,0,0,1,13.65-13.72,42.53,42.53,0,0,1,39.9,0A35.91,35.91,0,0,1,422,88.57a40.15,40.15,0,0,1,5,20.23,40.4,40.4,0,0,1-4.9,20.09,35.52,35.52,0,0,1-13.58,13.72A39.59,39.59,0,0,1,388.47,147.58Zm0-12.6a24.52,24.52,0,0,0,12.88-3.36,23.45,23.45,0,0,0,8.75-9.24,28.33,28.33,0,0,0,3.15-13.58,28.7,28.7,0,0,0-3.15-13.65,23.31,23.31,0,0,0-8.75-9.31,26.37,26.37,0,0,0-25.76,0,23.9,23.9,0,0,0-8.82,9.31,28.26,28.26,0,0,0-3.22,13.65,27.9,27.9,0,0,0,3.22,13.58,24,24,0,0,0,8.82,9.24A24.57,24.57,0,0,0,388.47,135Z"/><path class="cls-1" d="M481.15,148.42a52.2,52.2,0,0,1-17.08-2.8,44.31,44.31,0,0,1-14.14-7.84,31,31,0,0,1-8.82-11.62,5.55,5.55,0,0,1,.07-5.46,7.69,7.69,0,0,1,9.94-2.45,8.53,8.53,0,0,1,3.71,4,18.1,18.1,0,0,0,5.53,6.44,32,32,0,0,0,9.31,4.76,36.17,36.17,0,0,0,11.48,1.82,35.41,35.41,0,0,0,12.39-2.1,22.13,22.13,0,0,0,9.17-6.09,14.45,14.45,0,0,0,3.5-9.87,18.46,18.46,0,0,0-5.81-13.3Q494.6,98,481.29,96.62,463.94,94.94,454,86.4t-9.94-21.14a24.24,24.24,0,0,1,5.18-15.68,32.07,32.07,0,0,1,14.07-9.8,55.67,55.67,0,0,1,19.81-3.36A42.48,42.48,0,0,1,498,38.8a35.12,35.12,0,0,1,11.13,6.58,42.92,42.92,0,0,1,8.26,9.94A8.73,8.73,0,0,1,519,61.13a5.74,5.74,0,0,1-2.73,4.27,6.56,6.56,0,0,1-5.74.7,8,8,0,0,1-4.62-3.64,24.69,24.69,0,0,0-5.46-6.86,24.19,24.19,0,0,0-7.56-4.41,29.2,29.2,0,0,0-10.22-1.61q-10.37-.15-17.36,3.85a13.16,13.16,0,0,0-7,12.25,16.14,16.14,0,0,0,2.17,8q2.17,3.84,8,6.65t16.73,3.92q16.67,1.68,26,10.15t9.31,22.33a28,28,0,0,1-3.29,13.86,30.19,30.19,0,0,1-8.82,9.87,39.37,39.37,0,0,1-12.6,6A54.76,54.76,0,0,1,481.15,148.42Z"/><path class="cls-1" d="M528.75,51.12a6.72,6.72,0,1,1,0-13.44h74.9a6.72,6.72,0,1,1,0,13.44ZM566.27,147a7.17,7.17,0,0,1-7.28-7.28V37.68h14.56V139.74a7.17,7.17,0,0,1-7.28,7.28Z"/><path class="cls-1" d="M630.53,147a7.17,7.17,0,0,1-7.28-7.28V45a7,7,0,0,1,2.1-5.25,7.14,7.14,0,0,1,5.18-2h63.28A7.15,7.15,0,0,1,699,39.57a6.57,6.57,0,0,1,2,5,6.19,6.19,0,0,1-2,4.76,7.32,7.32,0,0,1-5.18,1.82h-56v34H678A7.15,7.15,0,0,1,683.17,87a6.93,6.93,0,0,1,0,9.66A7.15,7.15,0,0,1,678,98.58H637.81v35h56A7.28,7.28,0,0,1,699,135.4a6.18,6.18,0,0,1,2,4.76,6.58,6.58,0,0,1-2,5,7.15,7.15,0,0,1-5.18,1.89Z"/><path class="cls-1" d="M713.69,147a6.7,6.7,0,0,1-6-3.36,7.21,7.21,0,0,1-.42-7.14l39.34-93.94q2.1-4.9,6.86-4.9a6.79,6.79,0,0,1,6.86,4.9l39.48,94.22a7.39,7.39,0,0,1-.49,7.07,6.76,6.76,0,0,1-6.09,3.15,7.4,7.4,0,0,1-4-1.19,6.78,6.78,0,0,1-2.73-3.29L751.77,56.3h3.92l-35.28,86.24a7.06,7.06,0,0,1-2.87,3.36A7.53,7.53,0,0,1,713.69,147Zm7.42-24.08,5.6-12h54.88l5.6,12Z"/><path class="cls-1" d="M820.51,147a7.17,7.17,0,0,1-7.28-7.28V45a7,7,0,0,1,2.1-5.25,7.13,7.13,0,0,1,5.18-2A7,7,0,0,1,827,41.6l43.82,87.78h-4.48L909,41.6a7,7,0,0,1,6.44-3.92,7.14,7.14,0,0,1,5.18,2,7,7,0,0,1,2.1,5.25v94.78a7,7,0,0,1-2.17,5.18,7.11,7.11,0,0,1-5.11,2.1,7.17,7.17,0,0,1-7.28-7.28V65.12l2.8-.7-36.68,74.76a7.25,7.25,0,0,1-6.3,3.64,7,7,0,0,1-6.72-4.34L825,65.82l2.8-.7v74.62a7.17,7.17,0,0,1-7.28,7.28Z"/><rect class="cls-1" x="73.69" width="27.62" height="89.92" rx="13.81"/><path class="cls-1" d="M147.32,22.93a14.44,14.44,0,0,0-22.06,2.87l-.06.09a14.75,14.75,0,0,0,2.4,18.61,58.54,58.54,0,0,1,18.25,42.78c-.1,31.58-25.52,57.68-56.94,58.42A58.67,58.67,0,0,1,47.35,44.55a14.63,14.63,0,0,0,2.29-18.36l-.07-.1a14.47,14.47,0,0,0-22.22-2.85A87.86,87.86,0,0,0,0,88.17C.57,135.58,39.06,174.33,86.25,175c48.9.69,88.75-38.93,88.75-87.91A87.84,87.84,0,0,0,147.32,22.93Z"/></g></g></svg>